<?xml version="1.0" encoding="UTF-8"?>
<svg  version="1.1" xmlns="http://www.w3.org/2000/svg" width="400" height="400">
<path id="logo" d="M0 0 C2.35432126 1.88345701 3.07768928 2.99028188 4.1875 5.75 C4.43359566 7.97571945 4.43359566 7.97571945 4.42800903 10.44500732 C4.43075836 11.38447708 4.43350769 12.32394684 4.43634033 13.29188538 C4.4255545 14.82721169 4.4255545 14.82721169 4.41455078 16.39355469 C4.41484283 17.47678513 4.41513489 18.56001556 4.41543579 19.67607117 C4.41404197 23.25808714 4.39847804 26.83989535 4.3828125 30.421875 C4.37908256 32.90480435 4.3762355 35.38773516 4.37423706 37.8706665 C4.36737987 43.73899515 4.3516154 49.60724703 4.33153808 55.47554421 C4.30697951 62.81311119 4.29624595 70.15068255 4.28515625 77.48828125 C4.26370347 90.57555873 4.22994968 103.66277464 4.1875 116.75 C5.30170319 116.74111755 6.41590637 116.73223511 7.56387329 116.7230835 C18.06927449 116.6419618 28.57461205 116.58201729 39.08025551 116.54275131 C44.48120818 116.52188552 49.8819078 116.49358593 55.28271484 116.44824219 C60.49578714 116.40474902 65.70861618 116.38085531 70.92185593 116.37049103 C72.90977177 116.36310593 74.89767445 116.34868451 76.8854866 116.32707977 C79.67215898 116.29799982 82.45782897 116.29404594 85.24462891 116.29589844 C86.06462372 116.28151733 86.88461853 116.26713623 87.72946167 116.25231934 C92.96975069 116.28995974 96.21548399 117.015153 100.1875 120.75 C103.57137289 126.37727329 103.62341714 132.41028649 103.59155273 138.80273438 C103.59841599 139.77616287 103.60527924 140.74959137 103.61235046 141.7525177 C103.63055635 144.94974618 103.6267902 148.14648113 103.62109375 151.34375 C103.62565807 153.57759764 103.63096439 155.81144388 103.63697815 158.04528809 C103.64589673 162.71888955 103.64349977 167.39232001 103.63354492 172.06591797 C103.62204892 178.04455185 103.64228331 184.02259565 103.67146206 190.00115204 C103.68983669 194.61150844 103.68952917 199.2217237 103.68382454 203.83210754 C103.68367152 206.0360446 103.68969944 208.23999135 103.70211601 210.44389343 C103.71705006 213.52872424 103.70633106 216.61246804 103.68920898 219.69726562 C103.70371094 221.05190666 103.70371094 221.05190666 103.71850586 222.43391418 C103.64992458 228.35652003 102.48634782 232.78047781 99.1875 237.75 C94.58320553 242.21041027 89.41688772 241.89753141 83.30593872 241.89044189 C82.50637815 241.89341302 81.70681759 241.89638414 80.88302791 241.8994453 C78.20081662 241.90812473 75.51865 241.9096399 72.83642578 241.91113281 C70.91455998 241.91576146 68.99269511 241.92078618 67.0708313 241.92617798 C61.84769173 241.93929801 56.62456501 241.94574597 51.40141153 241.95018864 C48.1389222 241.95311951 44.87643639 241.95722431 41.61394882 241.96169281 C31.40829806 241.97536562 21.20265533 241.98503379 10.99699605 241.9888947 C-0.78792002 241.9933775 -12.57272022 242.01093661 -24.35760105 242.0398953 C-33.46513351 242.06149916 -42.57263334 242.07159826 -51.68019116 242.07293582 C-57.12083268 242.07398461 -62.56136526 242.07990852 -68.00197983 242.09775543 C-73.11882609 242.11421406 -78.23548124 242.11640234 -83.35234451 242.10761642 C-85.23007468 242.10684491 -87.10781503 242.11120375 -88.98551941 242.12107468 C-91.54956506 242.13376303 -94.1129306 242.12793449 -96.67697144 242.11749268 C-97.41939177 242.12554908 -98.16181211 242.13360548 -98.92673004 242.14190602 C-103.62618856 242.09716812 -106.82137618 241.228782 -110.8125 238.75 C-114.21964698 234.97451281 -115.93169241 232.58029117 -115.95967102 227.5256958 C-115.97040398 226.19672775 -115.97040398 226.19672775 -115.98135376 224.84091187 C-115.98404266 223.8663504 -115.98673157 222.89178894 -115.98950195 221.88769531 C-115.99607315 220.86316254 -116.00264435 219.83862976 -116.00941467 218.78305054 C-116.02917818 215.38140801 -116.04081727 211.97980969 -116.05078125 208.578125 C-116.05689454 206.83793217 -116.05689454 206.83793217 -116.06313133 205.06258392 C-116.0840054 198.92193275 -116.09830117 192.78130401 -116.10766602 186.640625 C-116.11873135 180.29399697 -116.15312927 173.94771946 -116.19283772 167.60121536 C-116.2189697 162.72502994 -116.22735485 157.84892843 -116.23094749 152.97267914 C-116.23582251 150.63310123 -116.24746238 148.2935273 -116.26598549 145.95401764 C-116.29030273 142.6790228 -116.28942503 139.40494008 -116.2824707 136.12988281 C-116.29528076 135.16341827 -116.30809082 134.19695374 -116.32128906 133.20120239 C-116.26893526 126.43621003 -114.74984507 122.94305778 -110.10723877 117.89628601 C-106.55159832 116.12014445 -102.9818633 116.35876418 -99.09667969 116.40942383 C-98.21827423 116.40898575 -97.33986877 116.40854767 -96.43484497 116.40809631 C-93.53446139 116.41018458 -90.63465747 116.43351752 -87.734375 116.45703125 C-85.72227291 116.46262707 -83.71016672 116.46689723 -81.69805908 116.46989441 C-76.40434467 116.48134429 -71.11087752 116.51081284 -65.81726074 116.54400635 C-60.41466619 116.57470406 -55.01203165 116.58839912 -49.609375 116.60351562 C-39.01030808 116.63568228 -28.41142461 116.68688049 -17.8125 116.75 C-17.81618717 116.1886202 -17.81987434 115.62724041 -17.82367325 115.04884911 C-17.91208308 101.37736291 -17.97798259 87.70592692 -18.01974869 74.03421593 C-18.04062551 67.42260462 -18.06894566 60.81119961 -18.11425781 54.19970703 C-18.15771101 47.81954545 -18.18163639 41.43958234 -18.19200897 35.05928421 C-18.19940119 32.62480164 -18.21383634 30.19032996 -18.23542023 27.75593185 C-18.26444615 24.34665176 -18.26845619 20.93819232 -18.26660156 17.52880859 C-18.28098267 16.52179901 -18.29536377 15.51478943 -18.31018066 14.4772644 C-18.2754445 8.57822425 -17.71141966 5.26111134 -13.8125 0.75 C-9.67601573 -2.38802255 -4.58746875 -2.038875 0 0 Z " fill="#FBBB17" transform="translate(202.8125,74.25)"/>
<path d="M0 0 C0.77397629 -0.00705963 1.54795258 -0.01411926 2.34538269 -0.02139282 C35.03956489 -0.25183964 35.03956489 -0.25183964 50.546875 3.203125 C51.46919922 3.40711914 52.39152344 3.61111328 53.34179688 3.82128906 C72.5394707 8.20295083 90.19747587 14.95403188 107.546875 24.203125 C108.13919922 24.51330566 108.73152344 24.82348633 109.34179688 25.14306641 C122.94069958 32.31015811 135.03467924 41.52893377 146.22265625 52.03125 C148.19753378 53.87668177 150.20929992 55.61382493 152.296875 57.328125 C156.14129603 60.61171285 159.32809578 64.31376677 162.546875 68.203125 C162.97097656 68.70424805 163.39507812 69.20537109 163.83203125 69.72167969 C191.29885427 102.25724094 210.33889793 144.53515837 210.78515625 187.63671875 C210.79499542 188.42336914 210.80483459 189.21001953 210.81497192 190.02050781 C211.39580379 248.58448223 192.42512717 299.24075464 151.484375 341.515625 C146.77908997 346.07568519 141.6776368 350.136471 136.546875 354.203125 C135.58136719 354.9971875 134.61585938 355.79125 133.62109375 356.609375 C92.47717661 389.64997936 38.54400665 402.15388684 -13.3125 396.953125 C-45.34589258 393.31899888 -77.15460036 382.02225273 -103.453125 363.203125 C-104.44699219 362.49929688 -105.44085938 361.79546875 -106.46484375 361.0703125 C-121.8372704 349.85748365 -135.76206677 337.24817534 -147.453125 322.203125 C-147.88915039 321.64351074 -148.32517578 321.08389648 -148.77441406 320.50732422 C-155.95547996 311.22093516 -162.07387073 301.63496784 -167.453125 291.203125 C-167.83210938 290.47109863 -168.21109375 289.73907227 -168.6015625 288.98486328 C-181.02781911 264.66922273 -189.40710479 237.2474092 -189.69140625 209.76953125 C-189.7012001 208.9827449 -189.71099396 208.19595856 -189.72108459 207.3853302 C-190.24601445 154.22042149 -175.12818825 106.33432324 -139.453125 66.203125 C-138.58429688 65.21183594 -137.71546875 64.22054687 -136.8203125 63.19921875 C-131.99156654 57.7724171 -127.07327817 52.79804293 -121.453125 48.203125 C-120.95248535 47.77950684 -120.4518457 47.35588867 -119.93603516 46.91943359 C-105.45285019 34.66443093 -89.60198498 25.23994461 -72.453125 17.203125 C-71.37546875 16.68234375 -70.2978125 16.1615625 -69.1875 15.625 C-47.9034866 5.85697453 -23.4401947 0.14365463 0 0 Z M-95.453125 52.203125 C-96.04077637 52.61578613 -96.62842773 53.02844727 -97.23388672 53.45361328 C-135.8692177 80.98114914 -161.29199065 124.08740376 -169.203125 170.515625 C-170.41033005 178.05168408 -171.15501688 185.57342023 -171.453125 193.203125 C-171.494375 194.12480469 -171.535625 195.04648438 -171.578125 195.99609375 C-172.67494286 244.59883509 -152.60931347 289.85029303 -119.69824219 324.88793945 C-114.64054436 330.15351607 -109.25315215 334.76829682 -103.453125 339.203125 C-102.51855469 339.9765625 -101.58398438 340.75 -100.62109375 341.546875 C-75.23599688 362.14171611 -43.58221654 373.64725382 -11.453125 378.203125 C-10.10541016 378.40035156 -10.10541016 378.40035156 -8.73046875 378.6015625 C37.22451286 383.99089473 84.97775111 369.74440786 121.453125 341.66796875 C160.4889813 310.56743173 185.68940887 268.13160622 191.546875 218.203125 C192.01969848 213.86890973 192.36152429 209.55886675 192.546875 205.203125 C192.588125 204.31625 192.629375 203.429375 192.671875 202.515625 C193.38001505 171.35746274 185.46091898 140.46715046 170.546875 113.203125 C169.98226563 112.15898438 169.41765625 111.11484375 168.8359375 110.0390625 C161.72803084 97.39166051 153.19934242 86.20707908 143.10888672 75.81640625 C141.54281928 74.19893616 139.9998121 72.56153606 138.45703125 70.921875 C105.57953261 36.46732145 59.94028127 20.70659075 13.296875 18.015625 C-25.49483115 17.13399531 -63.98987269 29.86268735 -95.453125 52.203125 Z " fill="#229E6B" transform="translate(189.453125,-0.203125)"/>
<path d="M0 0 C4.26084687 1.42028229 6.33447296 3.1169377 9.5625 6.1875 C9.01579895 9.89725711 8.13020709 12.21175151 5.8671875 15.19140625 C5.04492676 16.29427979 5.04492676 16.29427979 4.20605469 17.41943359 C3.62243164 18.18852051 3.03880859 18.95760742 2.4375 19.75 C-8.24374928 33.25154329 -8.24374928 33.25154329 -12.6484375 49.3828125 C-13.3819327 71.68876367 -13.3819327 71.68876367 -19.52444458 78.885849 C-23.92896465 81.88270309 -29.94272807 80.89638342 -35.05078125 80.7734375 C-36.3888305 80.7622375 -37.72690447 80.7537011 -39.06498718 80.74771118 C-42.57553844 80.72487444 -46.08458432 80.66600126 -49.59454346 80.5994873 C-53.18066037 80.53795009 -56.76702216 80.51067212 -60.35351562 80.48046875 C-67.38212623 80.41624887 -74.40974072 80.31393516 -81.4375 80.1875 C-77.19856859 72.66766365 -77.19856859 72.66766365 -75.02734375 69.6796875 C-74.38720337 68.79796875 -74.38720337 68.79796875 -73.73413086 67.8984375 C-62.72617468 53.02869968 -53.14567277 40.67905992 -35.3215332 33.93408203 C-25.98618048 30.21859999 -20.30863524 23.22318184 -14.75 15.125 C-4.35985342 0.23781019 -4.35985342 0.23781019 0 0 Z " fill="#A71E59" transform="translate(320.4375,100.8125)"/>
<path d="M0 0 C3.02938152 0.75156412 4.98542248 2.45457565 7.3828125 4.38671875 C9.97464815 6.13286155 12.03690825 5.98667085 15.046875 5.5078125 C16.036875 4.8478125 17.026875 4.1878125 18.046875 3.5078125 C21.484375 3.0703125 21.484375 3.0703125 25.046875 3.5078125 C27.82448255 6.21034957 29.36289205 9.06631022 31.046875 12.5078125 C31.67335937 12.47300781 32.29984375 12.43820313 32.9453125 12.40234375 C33.76257813 12.37527344 34.57984375 12.34820312 35.421875 12.3203125 C36.23398438 12.28550781 37.04609375 12.25070313 37.8828125 12.21484375 C38.59695312 12.31152344 39.31109375 12.40820312 40.046875 12.5078125 C42.26102992 15.82904488 42.24408912 17.15138505 41.66796875 20.9921875 C40.61061889 25.27478693 38.89628439 29.29382368 37.203125 33.359375 C36.07549125 36.42989122 35.47434773 39.27262117 35.046875 42.5078125 C34.23863281 42.68957031 33.43039063 42.87132812 32.59765625 43.05859375 C31.52902344 43.30996094 30.46039063 43.56132812 29.359375 43.8203125 C28.30363281 44.06394531 27.24789062 44.30757812 26.16015625 44.55859375 C23.02225601 45.34747897 23.02225601 45.34747897 20.58984375 47.17578125 C16.94770625 49.08356756 15.00047276 48.52208627 11.046875 47.5078125 C8.04461534 46.25142828 5.21096879 44.76005887 2.359375 43.1953125 C1.61365234 42.80408203 0.86792969 42.41285156 0.09960938 42.00976562 C-3.76707518 39.92982737 -7.1691648 37.99307565 -9.953125 34.5078125 C-11.19723672 29.62023073 -10.86520312 27.04899803 -8.953125 22.5078125 C-9.29463396 19.63913721 -10.03835425 17.25212474 -10.953125 14.5078125 C-11.57665938 9.75113595 -11.62345536 6.53425586 -8.953125 2.4453125 C-5.83621638 0.43230902 -3.72285008 -0.20993515 0 0 Z " fill="#BBD43A" transform="translate(93.953125,99.4921875)"/>
<path d="M0 0 C3.50863761 1.8494554 5.67162296 3.94450238 6.875 7.8125 C6.91625 8.534375 6.9575 9.25625 7 10 C6.53851563 10.31710938 6.07703125 10.63421875 5.6015625 10.9609375 C-8.51963619 21.06345514 -18.44186302 34.95802024 -27.87109375 49.33984375 C-28.30873047 49.9937207 -28.74636719 50.64759766 -29.19726562 51.32128906 C-30.00004921 52.52925711 -30.78288924 53.75082069 -31.54101562 54.98730469 C-32.62109375 56.60546875 -32.62109375 56.60546875 -35 59 C-38.78515625 59.36328125 -38.78515625 59.36328125 -42 59 C-41.8548999 58.34112793 -41.7097998 57.68225586 -41.56030273 57.00341797 C-39.58272409 46.88704636 -39.8839249 36.99523301 -40.11645508 26.74707031 C-40.16485541 24.4381597 -40.19460448 22.12954681 -40.22265625 19.8203125 C-40.2552932 18.77485764 -40.2552932 18.77485764 -40.28858948 17.70828247 C-40.33566683 13.04744744 -39.44482669 9.95804573 -37 6 C-32.97587296 2.56912792 -29.22783763 2.73149603 -24.1875 3 C-17.69985177 3.21710262 -17.69985177 3.21710262 -11.5 1.5 C-7.07187141 -0.39776939 -4.77908234 -0.61665579 0 0 Z " fill="#BBD43A" transform="translate(260,122)"/>
<path d="M0 0 C2.69898598 3.25262413 4.09021774 5.18109387 3.87890625 9.44140625 C3.69134766 10.70791016 3.69134766 10.70791016 3.5 12 C2.86312867 16.3267856 3.21182988 18.63237272 5.50390625 22.33203125 C10.03015897 27.37827122 14.82529033 30.13985193 21 32.6875 C21.68578125 32.98205078 22.3715625 33.27660156 23.078125 33.58007812 C26.99833468 35.24467098 30.93707685 36.71129156 35 38 C34.34 40.31 33.68 42.62 33 45 C32.41476563 44.9278125 31.82953125 44.855625 31.2265625 44.78125 C18.6350866 43.42000936 6.06972694 42.83722087 -6.203125 46.34375 C-10.52052977 47.35677235 -13.7948247 47.58919681 -17.8125 45.625 C-20 44 -20 44 -21 42 C-21.14375422 38.62177584 -21.07536348 36.22609045 -20 33 C-21.84550034 30.40144575 -21.84550034 30.40144575 -24 28 C-25.5547669 24.89046621 -25.28644437 22.43733239 -25 19 C-23.4375 15.625 -23.4375 15.625 -21 13 C-17.25 12.125 -17.25 12.125 -14 12 C-14.103125 11.13375 -14.20625 10.2675 -14.3125 9.375 C-13.878911 4.69223883 -12.29806646 3.29806646 -9 0 C-5.34027592 -1.21990803 -3.66833807 -1.19782468 0 0 Z " fill="#BBD43A" transform="translate(71,118)"/>
<path d="M0 0 C0 2.64 0 5.28 0 8 C-1.50240234 8.22042969 -1.50240234 8.22042969 -3.03515625 8.4453125 C-12.63681182 9.81360983 -12.63681182 9.81360983 -20.58984375 14.921875 C-23.12741572 18.66145475 -24.79400362 22.78477842 -26.4453125 26.9765625 C-28.20289554 30.39457576 -29.76018534 31.96354507 -33 34 C-37.6221759 35.09324508 -41.24736877 34.38315771 -45.4375 32.25 C-48.66387623 29.41708428 -49.79312303 27.52435665 -50.37109375 23.265625 C-50.52880547 16.10365762 -49.77339713 11.46288783 -45 6 C-34.89846774 -4.39014747 -12.78036447 -6.39018224 0 0 Z " fill="#BBD43A" transform="translate(101,173)"/>
<path d="M0 0 C-1.28833032 2.70133777 -2.7346988 5.10643472 -4.4375 7.5625 C-7.11538131 11.74915809 -8.2844317 15.96966191 -9.421875 20.77734375 C-10 23 -10 23 -11 24 C-13.21855264 24.08783542 -15.43988496 24.10694609 -17.66015625 24.09765625 C-18.65685585 24.09553383 -18.65685585 24.09553383 -19.6736908 24.09336853 C-21.80333899 24.08775518 -23.93288339 24.07520054 -26.0625 24.0625 C-27.50325369 24.05748671 -28.94400903 24.05292351 -30.38476562 24.04882812 C-33.92321102 24.03778145 -37.46159539 24.02050792 -41 24 C-41.05443201 21.94821559 -41.09298708 19.89600663 -41.125 17.84375 C-41.14820312 16.70099609 -41.17140625 15.55824219 -41.1953125 14.38085938 C-40.89218555 9.13373185 -39.19875088 5.13910656 -36 1 C-25.96386643 -7.92329741 -11.0709204 -6.15051133 0 0 Z " fill="#F05C2C" transform="translate(151,156)"/>
<path d="M0 0 C2.48257068 2.48257068 2.44558703 3.82066387 2.9375 7.25 C3.66359474 11.70531733 4.94114698 14.97587819 7 19 C7.46381444 22.7563873 7.48333245 24.37379569 5.13671875 27.4140625 C3.92435547 28.50847656 3.92435547 28.50847656 2.6875 29.625 C-0.69937898 32.71635291 -0.69937898 32.71635291 -3.62109375 36.2265625 C-5 38 -5 38 -7.75 38.75 C-12.13663573 37.73769945 -13.39695017 35.48404944 -16.12109375 32.046875 C-18.99988444 28.91072881 -22.10715797 27.63909138 -26 26 C-25.58427734 24.90945312 -25.58427734 24.90945312 -25.16015625 23.796875 C-22.79338579 17.22719188 -21.54305442 11.48999681 -21.46875 4.49609375 C-21 2 -21 2 -19.11328125 0.203125 C-13.30223569 -3.10519669 -5.89446262 -3.03143792 0 0 Z " fill="#BBD43A" transform="translate(339,155)"/>
<path d="M0 0 C0 8.25 0 16.5 0 25 C-8.25 25 -16.5 25 -25 25 C-24.0206851 16.18616592 -23.08011522 10.52314732 -16.625 4.625 C-11.10404571 0.30221026 -7.1127495 0 0 0 Z " fill="#F05C2C" transform="translate(175,156)"/>
<path d="M0 0 C0 3.96 0 7.92 0 12 C-2.3203125 12.433125 -2.3203125 12.433125 -4.6875 12.875 C-7.60648034 13.44646235 -10.06449927 14.02723302 -12.8125 15.1875 C-17.0731365 16.77002213 -21.30556302 14.60748682 -25.375 13.0625 C-29.55112005 11.50846344 -33.69605208 10.14771945 -38 9 C-35.79037513 4.51979509 -33.60567587 2.87301351 -29.125 0.75 C-28.09632813 0.24984375 -27.06765625 -0.2503125 -26.0078125 -0.765625 C-17.69116009 -4.17869274 -8.1130431 -4.05652155 0 0 Z " fill="#F05C2C" transform="translate(175,136)"/>
</svg>
